<svg id="Layer_1" data-name="Layer 1" xmlns="http://www.w3.org/2000/svg" xmlns:xlink="http://www.w3.org/1999/xlink" viewBox="0 0 25.65 34.7"><defs><clipPath id="clip-path" transform="translate(-1.37 2.7)"><path d="M5,10.94A11.08,11.08,0,0,1,14.55,0,9.14,9.14,0,0,0,9.88,7a.33.33,0,0,0-.05.16V20.54C7.29,17.11,5,14,5,10.94" style="fill:none"/></clipPath><clipPath id="clip-path-2" transform="translate(-1.37 2.7)"><path d="M12.18,8.71a7,7,0,0,1,0-1.45,6.82,6.82,0,1,1,0,1.45Z" style="fill:none"/></clipPath></defs><path d="M5,10.94A11.08,11.08,0,0,1,14.55,0,9.14,9.14,0,0,0,9.88,7a.33.33,0,0,0-.05.16V20.54C7.29,17.11,5,14,5,10.94" transform="translate(-1.37 2.7)" style="fill:#ff6c37;fill-rule:evenodd"/><g style="clip-path:url(#clip-path)"><path d="M6.28,16.67S11.44,6.22,26.53,8V-2.7l-25.16,5" transform="translate(-1.37 2.7)" style="fill:#fff;fill-rule:evenodd;isolation:isolate;opacity:0.20000000298023224"/></g><path d="M12.18,8.71a7,7,0,0,1,0-1.45,6.82,6.82,0,1,1,0,1.45Z" transform="translate(-1.37 2.7)" style="fill:#ff6c37;fill-rule:evenodd"/><g style="clip-path:url(#clip-path-2)"><path d="M6.28,16.67S11.44,6.22,26.53,8V-2.7l-25.16,5" transform="translate(-1.37 2.7)" style="fill:#fff;fill-rule:evenodd;isolation:isolate;opacity:0.20000000298023224"/></g><path d="M27,12.24C25.86,17.94,17.55,24,16.07,32a22.85,22.85,0,0,0-3.89-8.21V14.1A9.12,9.12,0,0,0,27,12.24Z" transform="translate(-1.37 2.7)" style="fill:#ff6c37;fill-rule:evenodd"/></svg>